<?xml version="1.0" encoding="UTF-8"?>
<svg width="22px" height="22px" viewBox="0 0 22 22" version="1.1" xmlns="http://www.w3.org/2000/svg" xmlns:xlink="http://www.w3.org/1999/xlink">
    <title>smooth</title>
    <g id="Clarins-TEL-UI-v4" stroke="none" stroke-width="1" fill="none" fill-rule="evenodd">
        <g id="02.10_game" transform="translate(-151.000000, -107.000000)" fill="#FFFFFF">
            <g id="hearder" transform="translate(-22.000000, 98.000000)">
                <g id="smooth" transform="translate(173.230769, 9.131479)">
                    <path d="M18.0086083,13.4847658 C18.0086083,13.4847658 17.8011214,15.36167 15.9698241,15.5230487 C15.9698241,15.5230487 17.8472296,15.7305356 18.0086083,17.5618329 C18.0086083,17.5618329 18.215594,15.6849286 20.0468912,15.5230487 C20.0468912,15.5230487 18.1694858,15.3155618 18.0086083,13.4847658" id="Fill-1"></path>
                    <path d="M16.9891661,18.3951884 C16.9891661,18.3951884 16.8854227,19.3338911 15.969774,19.4145804 C15.969774,19.4145804 16.9084768,19.5183239 16.9891661,20.4334713 C16.9891661,20.4334713 17.0929095,19.4952698 18.0085582,19.4145804 C18.0085582,19.4145804 17.0698554,19.310837 16.9891661,18.3951884" id="Fill-3"></path>
                    <path d="M13.1897004,16.7825041 C13.1897004,16.7825041 12.9827147,18.6599096 11.1514175,18.8212882 C11.1514175,18.8212882 13.0288229,19.0282739 13.1897004,20.8600724 C13.1897004,20.8600724 13.3971873,18.9826669 15.2284845,18.8212882 C15.2284845,18.8212882 13.3510791,18.6138014 13.1897004,16.7825041" id="Fill-5"></path>
                    <path d="M1.18302604,12.1911803 C2.13726522,13.1820053 5.25357783,16.0973464 8.86254649,16.0973464 C12.4715152,16.0973464 15.5878278,13.1820053 16.5420669,12.1911803 C15.5878278,11.2003553 12.4715152,8.28551542 8.86254649,8.28551542 C5.25357783,8.28551542 2.13726522,11.2003553 1.18302604,12.1911803 M8.86254649,17.0996984 C4.0682965,17.0996984 0.277902114,12.702881 0.119530485,12.5154412 C-0.0393423191,12.3285025 -0.0393423191,12.0538581 0.119530485,11.8669194 C0.277902114,11.6794796 4.0682965,7.28316334 8.86254649,7.28316334 C13.6572977,7.28316334 17.4471909,11.6794796 17.6060637,11.8669194 C17.7649365,12.0538581 17.7649365,12.3285025 17.6060637,12.5154412 C17.4471909,12.702881 13.6572977,17.0996984 8.86254649,17.0996984" id="Fill-8"></path>
                    <path d="M9.00362755,10.4194729 C8.02683545,10.4194729 7.23247143,11.2143381 7.23247143,12.1911302 C7.23247143,13.1679223 8.02683545,13.9627875 9.00362755,13.9627875 C9.98041965,13.9627875 10.7752848,13.1679223 10.7752848,12.1911302 C10.7752848,11.2143381 9.98041965,10.4194729 9.00362755,10.4194729 M9.00362755,14.9651396 C7.47403828,14.9651396 6.23011935,13.7207195 6.23011935,12.1911302 C6.23011935,10.6615409 7.47403828,9.4171208 9.00362755,9.4171208 C10.5332168,9.4171208 11.7776369,10.6615409 11.7776369,12.1911302 C11.7776369,13.7207195 10.5332168,14.9651396 9.00362755,14.9651396" id="Fill-10"></path>
                    <path d="M1.02911488,4.52368807 C0.992027853,4.70912321 1.00104902,5.25139568 1.01157372,5.87235279 C1.01257607,5.92397393 1.01307725,5.97709859 1.0140796,6.03172677 C2.54366887,5.43131788 6.35962324,4.10921549 10.3544974,4.08365551 C12.3977922,4.08114963 13.9614614,4.63695386 15.0921145,5.28898388 C14.2330988,4.23501067 13.0443093,3.01865642 11.5207341,2.00577965 C11.0441157,1.78275631 9.07449384,1.93711853 6.18120457,2.66582849 C3.51494804,3.33740439 1.51124623,4.12174489 1.02911488,4.52368807 L1.02911488,4.52368807 Z M17.2241174,8.04996269 C16.9479694,8.04996269 16.7690496,7.88307106 16.4107087,7.549789 C15.5496883,6.74840851 13.7629957,5.08600759 10.4246621,5.08600759 L10.3605116,5.08600759 C5.5091275,5.1170805 0.775519804,7.2129987 0.728409256,7.23404809 C0.573044684,7.30321039 0.394626014,7.28967863 0.25329437,7.19896577 C0.110459199,7.10775173 0.0237557443,6.95138481 0.0222522162,6.78198731 C0.0187439839,6.44670053 0.0137322235,6.15000432 0.00922163913,5.8888916 C-0.0128301066,4.58884096 -0.0198465712,4.15131427 0.275847292,3.85562041 C1.42103454,2.70993198 10.2226881,0.185007097 12.0078772,1.12872158 C12.0219101,1.13623922 12.0359431,1.14475921 12.0494748,1.15378038 C15.802281,3.63760883 17.5979947,7.1754105 17.6721688,7.32526213 C17.7503523,7.4806267 17.7418323,7.66505949 17.6506182,7.81290642 C17.558903,7.96025217 17.3980255,8.04996269 17.2241174,8.04996269 L17.2241174,8.04996269 Z" id="Fill-12"></path>
                </g>
            </g>
        </g>
    </g>
</svg>