<?xml version="1.0" encoding="UTF-8"?>
<svg width="21px" height="20px" viewBox="0 0 21 20" version="1.1" xmlns="http://www.w3.org/2000/svg" xmlns:xlink="http://www.w3.org/1999/xlink">
    <title>Group 19</title>
    <defs>
        <polygon id="path-1" points="0.00844783655 0.0281 3.327 0.0281 3.327 3.9976 0.00844783655 3.9976"></polygon>
        <polygon id="path-3" points="0 0.3445 19.0778267 0.3445 19.0778267 7.97075 0 7.97075"></polygon>
    </defs>
    <g id="Clarins-TEL-UI-v4" stroke="none" stroke-width="1" fill="none" fill-rule="evenodd">
        <g id="02.10_game" transform="translate(-77.000000, -108.000000)">
            <g id="hearder" transform="translate(-22.000000, 98.000000)">
                <g id="Group-19" transform="translate(99.000000, 10.000000)">
                    <path d="M7.7935,15.4125 C4.7205,15.4125 2.055,12.965 1.182,12.0685 C2.055,11.1715 4.7205,8.724 7.7935,8.724 C10.867,8.724 13.533,11.1725 14.406,12.069 C13.5345,12.9655 10.8745,15.4125 7.7935,15.4125 M7.7935,7.724 C3.582,7.724 0.2585,11.5805 0.119,11.7445 C-0.0395,11.931 -0.0395,12.2055 0.119,12.392 C0.2585,12.556 3.582,16.4125 7.7935,16.4125 C12.005,16.4125 15.329,12.556 15.4685,12.392 C15.627,12.2055 15.627,11.931 15.4685,11.7445 C15.329,11.5805 12.005,7.724 7.7935,7.724" id="Fill-1" fill="#FEFEFE"></path>
                    <path d="M14.7593,16.03505 C14.7558,16.03805 14.4058,16.34055 13.8073,16.73805 C13.5773,16.89105 13.5148,17.20155 13.6673,17.43155 C13.7638,17.57655 13.9228,17.65455 14.0843,17.65455 C14.1798,17.65455 14.2758,17.62805 14.3608,17.57105 C15.0183,17.13405 15.3998,16.80355 15.4153,16.78955 C15.6238,16.60805 15.6453,16.29305 15.4648,16.08505 C15.2838,15.87705 14.9683,15.85405 14.7593,16.03505" id="Fill-3" fill="#FEFEFE"></path>
                    <path d="M6.53125,18.661 C5.72675,18.541 4.89775,18.306 4.06725,17.963 C3.81325,17.858 3.52025,17.978 3.41475,18.234 C3.30925,18.4885 3.43025,18.781 3.68575,18.8865 C4.59075,19.261 5.49875,19.518 6.38375,19.6505 C6.40875,19.6535 6.43375,19.6555 6.45825,19.6555 C6.70175,19.6555 6.91525,19.4775 6.95225,19.2295 C6.99275,18.9565 6.80475,18.702 6.53125,18.661" id="Fill-5" fill="#FEFEFE"></path>
                    <path d="M11.52495,17.96035 C10.69445,18.30385 9.86595,18.53935 9.06145,18.65935 C8.78845,18.70035 8.60045,18.95485 8.64095,19.22835 C8.67845,19.47635 8.89145,19.65435 9.13545,19.65435 C9.15995,19.65435 9.18445,19.65235 9.20995,19.64885 C10.09445,19.51585 11.00195,19.25935 11.90795,18.88435 C12.16245,18.77885 12.28395,18.48635 12.17845,18.23085 C12.07295,17.97585 11.78145,17.85485 11.52495,17.96035" id="Fill-7" fill="#FEFEFE"></path>
                    <path d="M0.82815,16.03505 C0.61915,15.85405 0.30365,15.87705 0.12265,16.08505 C-0.05785,16.29305 -0.03635,16.60805 0.17215,16.78955 C0.18765,16.80355 0.56915,17.13405 1.22615,17.57105 C1.31115,17.62805 1.40715,17.65455 1.50265,17.65455 C1.66415,17.65455 1.82265,17.57655 1.91965,17.43155 C2.07215,17.20155 2.00965,16.89155 1.77965,16.73805 C1.18165,16.34055 0.83165,16.03805 0.82815,16.03505" id="Fill-9" fill="#FEFEFE"></path>
                    <path d="M7.91655,13.55065 C7.09905,13.55065 6.43405,12.88565 6.43405,12.06815 C6.43405,11.25065 7.09905,10.58565 7.91655,10.58565 C8.73405,10.58565 9.39905,11.25065 9.39905,12.06815 C9.39905,12.88565 8.73405,13.55065 7.91655,13.55065 M7.91655,9.58565 C6.54805,9.58565 5.43405,10.69965 5.43405,12.06815 C5.43405,13.43665 6.54805,14.55065 7.91655,14.55065 C9.28505,14.55065 10.39905,13.43665 10.39905,12.06815 C10.39905,10.69965 9.28505,9.58565 7.91655,9.58565" id="Fill-11" fill="#FEFEFE"></path>
                    <g id="Group-15" transform="translate(16.500000, 10.155650)">
                        <mask id="mask-2" fill="white">
                            <use xlink:href="#path-1"></use>
                        </mask>
                        <g id="Clip-14"></g>
                        <path d="M3.1797,1.3296 L2.0182,0.1751 L2.0172,0.1741 L2.0167,0.1736 C2.0142,0.1716 2.0107,0.1711 2.0082,0.1686 C1.9637,0.1261 1.9122,0.0901 1.8542,0.0671 C1.8072,0.0476 1.7567,0.0411 1.7067,0.0366 C1.6917,0.0356 1.6792,0.0281 1.6642,0.0281 L1.6632,0.0281 C1.5982,0.0286 1.5337,0.0416 1.4732,0.0671 C1.4117,0.0921 1.3562,0.1296 1.3097,0.1756 L0.1537,1.3386 C-0.0408,1.5341 -0.0398,1.8506 0.1557,2.0456 C0.2532,2.1426 0.3807,2.1911 0.5082,2.1911 C0.6367,2.1911 0.7652,2.1416 0.8627,2.0436 L1.1642,1.7401 L1.1642,3.4976 C1.1642,3.7741 1.3877,3.9976 1.6642,3.9976 C1.9402,3.9976 2.1642,3.7741 2.1642,3.4976 L2.1642,1.7301 L2.4747,2.0386 C2.6707,2.2341 2.9872,2.2326 3.1817,2.0366 C3.3767,1.8406 3.3757,1.5241 3.1797,1.3296" id="Fill-13" fill="#FEFEFE" mask="url(#mask-2)"></path>
                    </g>
                    <g id="Group-18" transform="translate(0.000000, 0.155650)">
                        <mask id="mask-4" fill="white">
                            <use xlink:href="#path-3"></use>
                        </mask>
                        <g id="Clip-17"></g>
                        <path d="M1.03275,4.17725 C1.54225,3.74125 3.72425,2.88275 6.62925,2.15125 C9.91775,1.32325 11.93125,1.20525 12.43275,1.44125 C14.17275,2.59825 15.51025,3.99925 16.45075,5.18175 C15.21875,4.43225 13.47775,3.74425 11.15125,3.76675 C6.79025,3.79375 2.62575,5.25425 1.01375,5.89125 C1.01225,5.81025 1.01075,5.73175 1.00975,5.65625 C0.99825,4.96875 0.98825,4.36975 1.03275,4.17725 M0.02325,6.64125 C0.02475,6.80975 0.11175,6.96625 0.25325,7.05725 C0.39575,7.14725 0.57375,7.16075 0.72825,7.09275 C0.77925,7.06975 5.91175,4.79925 11.15725,4.76675 L11.22425,4.76675 C14.85225,4.76675 16.86425,6.63875 17.72675,7.44075 C18.10575,7.79375 18.29575,7.97075 18.57775,7.97075 C18.75125,7.97075 18.91175,7.88075 19.00275,7.73375 C19.09425,7.58625 19.10275,7.40225 19.02475,7.24775 C18.94425,7.08625 17.00775,3.27075 12.96025,0.59175 C12.94725,0.58325 12.93325,0.57475 12.91875,0.56675 C10.99825,-0.44925 1.51925,2.27325 0.28575,3.50725 C-0.02075,3.81375 -0.01325,4.28225 0.00975,5.67275 C0.01475,5.95625 0.02025,6.27725 0.02325,6.64125" id="Fill-16" fill="#FEFEFE" mask="url(#mask-4)"></path>
                    </g>
                </g>
            </g>
        </g>
    </g>
</svg>