<?xml version="1.0" encoding="UTF-8"?>
<svg width="19px" height="21px" viewBox="0 0 19 21" version="1.1" xmlns="http://www.w3.org/2000/svg" xmlns:xlink="http://www.w3.org/1999/xlink">
    <title>fuel</title>
    <g id="Clarins-TEL-UI-v4" stroke="none" stroke-width="1" fill="none" fill-rule="evenodd">
        <g id="02.10_game" transform="translate(-230.000000, -108.000000)" fill="#FFFFFF">
            <g id="hearder" transform="translate(-22.000000, 98.000000)">
                <g id="fuel" transform="translate(252.180592, 10.500000)">
                    <path d="M4.3563502,6.71514479 L8.76516865,6.71514479 L8.76516865,3.12799903 L4.3563502,3.12799903 L4.3563502,6.71514479 Z M9.2601522,2.13803193 L3.86136665,2.13803193 C3.58764075,2.13803193 3.3663831,2.35928958 3.3663831,2.63301548 L3.3663831,7.21012834 C3.3663831,7.48385424 3.58764075,7.70511189 3.86136665,7.70511189 L9.2601522,7.70511189 C9.5338781,7.70511189 9.75513574,7.48385424 9.75513574,7.21012834 L9.75513574,2.63301548 C9.75513574,2.35928958 9.5338781,2.13803193 9.2601522,2.13803193 L9.2601522,2.13803193 Z" id="Fill-1"></path>
                    <path d="M15.3377087,5.27320822 L15.3377087,3.444739 L15.9252542,4.05158883 L15.9252542,5.64048601 C15.7332005,5.67711479 15.5322372,5.68453955 15.4372004,5.62019169 C15.3505783,5.56178363 15.3377087,5.37764975 15.3377087,5.27320822 L15.3377087,5.27320822 Z M2.21618983,18.7808142 L10.694268,18.7808142 L10.694268,0.990115589 L2.21618983,0.990115589 L2.21618983,18.7808142 Z M16.6568398,6.43889447 C16.8127597,6.35276734 16.9152212,6.1914027 16.9152212,6.01023872 L16.9152212,3.85161547 C16.9152212,3.72291975 16.8652279,3.59966885 16.7756359,3.50760191 L13.6206108,0.245660334 C13.4305371,0.0491518662 13.1182025,0.0442020307 12.920704,0.233780729 C12.7246905,0.423854411 12.7192457,0.737178996 12.9093194,0.933687465 L14.3477416,2.42111302 L14.3477416,5.27320822 C14.3477416,5.94292096 14.6412668,6.27901479 14.8877686,6.44334933 C15.1283306,6.60421898 15.4079963,6.6576772 15.6708326,6.6576772 C15.6777624,6.6576772 15.6837022,6.65668723 15.690137,6.65668723 C15.9975217,7.8461327 17.25478,13.0677141 16.2563981,15.3184043 C15.9752475,15.9529732 15.5574814,16.2489734 14.9417218,16.2489734 C14.1314338,16.2489734 13.1662159,15.9341639 13.1662159,14.4313938 L13.1078078,7.69516272 C13.1063229,7.55409241 13.0454399,7.42094183 12.9395134,7.32738994 L11.6842351,6.22308165 L11.6842351,0.495132042 C11.6842351,0.221406141 11.4629775,0.000148495064 11.1892516,0.000148495064 L1.72120629,0.000148495064 C1.44748039,0.000148495064 1.22622274,0.221406141 1.22622274,0.495132042 L1.22622274,18.7808142 L0.495132042,18.7808142 C0.221406141,18.7808142 0.000148495063,19.0020719 0.000148495063,19.2757978 C0.000148495063,19.5495237 0.221406141,19.7707813 0.495132042,19.7707813 L1.72120629,19.7707813 L11.1892516,19.7707813 L12.4138409,19.7707813 C12.6875668,19.7707813 12.9088244,19.5495237 12.9088244,19.2757978 C12.9088244,19.0020719 12.6875668,18.7808142 12.4138409,18.7808142 L11.6842351,18.7808142 L11.6842351,7.54171782 L12.1198206,7.92483508 L12.1762488,14.4358487 C12.1762488,16.5029 13.6047713,17.2389405 14.9417218,17.2389405 C15.9534682,17.2389405 16.7211877,16.713268 17.1617231,15.719341 C18.2927605,13.1691858 17.0028333,7.76941025 16.6568398,6.43889447 L16.6568398,6.43889447 Z" id="Fill-3"></path>
                </g>
            </g>
        </g>
    </g>
</svg>